# xmcd CD database file
#
# Track frame offsets:
#	150
#	26076
#	49183
#	74666
#	99218
#	122792
#	145690
#	163865
#	183685
#	206458
#	228650
#	247503
#	269754
#	289673
#	308004
#
# Disc length: 4299 seconds
#
# Revision: 0
# Processed by: cddbd v1.5PL3 Copyright (c) Steve Scherf et al.
# Submitted via: CD2WAV32(EN) R3.19
#
DISCID=dc10c90f
DTITLE=???? - MY ALL <YUKI KOYANAGI SINGLES 1999-2003>
DYEAR=1900
DGENRE=
TTITLE0=?????????????~You were mine~
TTITLE1=fairyland (trans@k feat.Yuki Koyanagi)
TTITLE2=??
TTITLE3=can't hold me back
TTITLE4=be alive
TTITLE5=??????~??????????
TTITLE6=DEEP DEEP
TTITLE7=beautiful world
TTITLE8=my all..
TTITLE9=remain~???
TTITLE10=HIT ON
TTITLE11=Endless
TTITLE12=Lovin'you
TTITLE13=ON THE RADIO<?????????>
TTITLE14=?????
EXTD=
EXTT0=
EXTT1=
EXTT2=
EXTT3=
EXTT4=
EXTT5=
EXTT6=
EXTT7=
EXTT8=
EXTT9=
EXTT10=
EXTT11=
EXTT12=
EXTT13=
EXTT14=
PLAYORDER=
